<svg width="80" height="80" viewBox="0 0 80 80" fill="none" xmlns="http://www.w3.org/2000/svg">
<path d="M40 72C57.6731 72 72 57.6731 72 40C72 22.3269 57.6731 8 40 8C22.3269 8 8 22.3269 8 40C8 57.6731 22.3269 72 40 72Z" fill="#339966"/>
<path d="M58.118 38.2856H50.4462L47.0177 41.7142H53.0286C53.3469 41.7163 53.6602 41.7931 53.9434 41.9384L58.118 38.2856Z" fill="white"/>
<path d="M40.6857 54.0571H43.4293V55.4286H40.6857V54.0571Z" fill="white"/>
<path d="M55.0857 43.7714V56.3926L58.9942 52.484C59.1258 52.3574 59.2001 52.1825 59.2 51.9999V39.1613L54.8985 42.9251C55.021 43.1905 55.0849 43.4791 55.0857 43.7714V43.7714Z" fill="white"/>
<path d="M36.3657 57.9753L36.3781 57.9637C36.5023 57.8356 36.5717 57.6641 36.5714 57.4857V43.7714C36.5714 43.3927 36.2645 43.0857 35.8857 43.0857H21.4857C21.107 43.0857 20.8 43.3927 20.8 43.7714V57.4857C20.8 57.8644 21.107 58.1714 21.4857 58.1714H35.8857C36.0653 58.1719 36.2378 58.1014 36.3657 57.9753V57.9753ZM27.6572 55.4285C27.6572 56.1859 27.0431 56.8 26.2857 56.8H23.5428C22.7854 56.8 22.1714 56.1859 22.1714 55.4285V54.0571C22.1714 53.2996 22.7854 52.6856 23.5428 52.6856H26.2856C27.0431 52.6856 27.6571 53.2996 27.6571 54.0571V55.4285H27.6572ZM34.5143 56.8H32.4571C32.0784 56.8 31.7714 56.493 31.7714 56.1142C31.7714 55.7356 32.0783 55.4285 32.4571 55.4285H34.5143C34.8929 55.4285 35.2 55.7355 35.2 56.1142C35.2 56.493 34.893 56.8 34.5143 56.8ZM34.5143 54.0571H32.4571C32.0784 54.0571 31.7714 53.7502 31.7714 53.3714C31.7714 52.9927 32.0783 52.6857 32.4571 52.6857H34.5143C34.8929 52.6857 35.2 52.9927 35.2 53.3714C35.2 53.7501 34.893 54.0571 34.5143 54.0571Z" fill="white"/>
<path d="M23.5428 54.0571H26.2864V55.4286H23.5428V54.0571Z" fill="white"/>
<path d="M53.501 57.9787L53.5086 57.9657L53.5216 57.9533C53.6431 57.8277 53.7121 57.6604 53.7143 57.4857V43.7714C53.7143 43.3927 53.4073 43.0857 53.0286 43.0857H38.6286C38.2499 43.0857 37.9429 43.3927 37.9429 43.7714V57.4857C37.9429 57.8644 38.2498 58.1714 38.6286 58.1714H53.0286C53.2049 58.1704 53.3742 58.1013 53.501 57.9787V57.9787ZM44.8 55.4285C44.8 56.1859 44.1859 56.8 43.4285 56.8H40.6857C39.9283 56.8 39.3142 56.1859 39.3142 55.4285V54.0571C39.3142 53.2996 39.9283 52.6856 40.6857 52.6856H43.4285C44.1859 52.6856 44.8 53.2996 44.8 54.0571V55.4285ZM51.6571 56.8H49.6C49.2213 56.8 48.9142 56.493 48.9142 56.1142C48.9142 55.7356 49.2212 55.4285 49.6 55.4285H51.6571C52.0358 55.4285 52.3429 55.7355 52.3429 56.1142C52.3428 56.493 52.0358 56.8 51.6571 56.8ZM51.6571 54.0571H49.6C49.2213 54.0571 48.9142 53.7502 48.9142 53.3714C48.9142 52.9927 49.2212 52.6857 49.6 52.6857H51.6571C52.0358 52.6857 52.3429 52.9927 52.3429 53.3714C52.3428 53.7501 52.0358 54.0571 51.6571 54.0571Z" fill="white"/>
<path d="M45.7147 25.4813L49.8894 21.8285H44.3495L39.9418 25.257H44.8C45.1183 25.2591 45.4315 25.336 45.7147 25.4813V25.4813Z" fill="white"/>
<path d="M36.7812 22.026C36.7516 22.0563 36.7193 22.0839 36.6846 22.1082L32.2014 25.257H37.7076L42.1154 21.8285H37.2571C37.0785 21.8278 36.9069 21.899 36.7812 22.026V22.026Z" fill="white"/>
<path d="M50.7657 36.0228C50.8963 35.8971 50.9705 35.724 50.9714 35.5428V22.7042L46.67 26.4681C46.7925 26.7334 46.8563 27.022 46.8572 27.3142V39.9376L50.7657 36.0228Z" fill="white"/>
<path d="M27.8669 38.4831C27.8373 38.5135 27.805 38.541 27.7702 38.5654L23.287 41.7142H28.469C28.3878 41.4946 28.3451 41.2626 28.3429 41.0285V38.2856C28.1641 38.285 27.9926 38.3561 27.8669 38.4831V38.4831Z" fill="white"/>
<path d="M32.4572 37.6H35.2007V38.9714H32.4572V37.6Z" fill="white"/>
<path d="M30.4 41.7143H44.8C44.9794 41.7149 45.1519 41.6447 45.28 41.5188L45.2937 41.5051C45.4174 41.3774 45.4863 41.2064 45.4857 41.0285V27.3143C45.4857 26.9356 45.1787 26.6285 44.8 26.6285H30.4C30.0213 26.6285 29.7142 26.9355 29.7142 27.3143V41.0285C29.7142 41.4073 30.0213 41.7143 30.4 41.7143V41.7143ZM41.3714 36.2285H43.4286C43.8073 36.2285 44.1143 36.5355 44.1143 36.9143C44.1143 37.2929 43.8073 37.6 43.4286 37.6H41.3714C40.9927 37.6 40.6857 37.293 40.6857 36.9143C40.6857 36.5356 40.9927 36.2285 41.3714 36.2285V36.2285ZM41.3714 38.9714H43.4286C43.8073 38.9714 44.1143 39.2784 44.1143 39.6572C44.1143 40.0359 43.8073 40.3429 43.4286 40.3429H41.3714C40.9927 40.3429 40.6857 40.0359 40.6857 39.6572C40.6857 39.2784 40.9927 38.9714 41.3714 38.9714V38.9714ZM31.0857 37.6C31.0857 36.8426 31.6997 36.2285 32.4571 36.2285H35.2C35.9574 36.2285 36.5714 36.8426 36.5714 37.6V38.9714C36.5714 39.7289 35.9574 40.3429 35.2 40.3429H32.4571C31.6997 40.3429 31.0857 39.7289 31.0857 38.9714V37.6Z" fill="white"/>
</svg>
