<svg width="64" height="64" viewBox="0 0 64 64" fill="none" xmlns="http://www.w3.org/2000/svg">
<path d="M56.7875 52.2337L44.8822 41.3091C45.8201 39.423 46.3486 37.2991 46.3486 35.0536C46.3486 34.0649 46.2459 33.0999 46.0512 32.1681V9.26237C46.0512 8.572 45.4916 8.01237 44.8012 8.01237H38.5925C37.9021 8.01237 37.3425 8.572 37.3425 9.26237V21.9071C36.3194 21.5095 35.2389 21.228 34.1171 21.0789V9.26187C34.1171 8.5715 33.5575 8.01187 32.8671 8.01187C32.1767 8.01187 31.6171 8.5715 31.6171 9.26187V20.97C30.2881 21.029 29.0064 21.2727 27.797 21.6762V9.26187C27.797 8.5715 27.2374 8.01187 26.547 8.01187C25.8566 8.01187 25.297 8.5715 25.297 9.26187V22.7926C23.8429 23.6205 22.55 24.6995 21.4769 25.9702V9.26187C21.4769 8.5715 20.9172 8.01187 20.2269 8.01187C19.5365 8.01187 18.9769 8.5715 18.9769 9.26187V30.3002C18.4431 31.7861 18.1514 33.3864 18.1514 35.0536C18.1514 42.8276 24.476 49.1522 32.2499 49.1522C34.4834 49.1522 36.5967 48.6294 38.4754 47.7009L49.4069 59.6117C51.3871 61.8394 54.9382 61.9572 57.0104 59.8347C59.0717 57.7234 59.0137 54.1905 56.7875 52.2337V52.2337ZM43.5161 49.4085L40.6579 46.3709C41.7531 45.5559 42.7311 44.5805 43.5485 43.487L46.5825 46.3422L43.5161 49.4085ZM39.8425 10.5124H43.5512V26.6241C42.5414 25.2717 41.288 24.0984 39.8425 23.1736V10.5124ZM20.6515 35.0536C20.6515 28.6581 25.8546 23.4551 32.2501 23.4551C38.5637 23.4551 43.8486 28.7421 43.8486 35.0537C43.8486 41.4492 38.6455 46.6522 32.25 46.6522C25.8545 46.6522 20.6515 41.449 20.6515 35.0536V35.0536ZM55.2422 58.0675C54.1414 59.168 52.3001 59.1032 51.2684 57.9427L45.2132 51.247L48.4209 48.0394L55.1179 54.0946C56.262 55.141 56.3546 56.954 55.2422 58.0675V58.0675Z" fill="white"/>
<path d="M13.4833 8.01187H7.27515C6.58477 8.01187 6.02515 8.5715 6.02515 9.26187V20.3331C6.02515 21.0235 6.58477 21.5831 7.27515 21.5831C7.96552 21.5831 8.52514 21.0235 8.52514 20.3331V10.5119H12.2334V41.1384H8.52514V31.3297C8.52514 30.6394 7.96552 30.0797 7.27515 30.0797C6.58477 30.0797 6.02515 30.6394 6.02515 31.3297V42.3884C6.02515 43.0787 6.58477 43.6384 7.27515 43.6384H13.4834C14.1738 43.6384 14.7334 43.0787 14.7334 42.3884V9.26187C14.7333 8.5715 14.1736 8.01187 13.4833 8.01187V8.01187Z" fill="white"/>
<path d="M50.9413 36.3036C51.6317 36.3036 52.1913 35.744 52.1913 35.0536V9.26187C52.1913 8.5715 51.6317 8.01187 50.9413 8.01187C50.2509 8.01187 49.6913 8.5715 49.6913 9.26187V35.0536C49.6913 35.744 50.2509 36.3036 50.9413 36.3036Z" fill="white"/>
<path d="M56.7904 43.6384C57.4808 43.6384 58.0404 43.0787 58.0404 42.3884V9.26187C58.0404 8.5715 57.4808 8.01187 56.7904 8.01187C56.1 8.01187 55.5404 8.5715 55.5404 9.26187V42.3884C55.5404 43.0787 56.1 43.6384 56.7904 43.6384Z" fill="white"/>
<path d="M6.15963 46.793H2.5V42.0939C2.5 41.4035 1.94037 40.8439 1.25 40.8439C0.559625 40.8439 0 41.4035 0 42.0939V48.043C0 48.7334 0.559625 49.293 1.25 49.293H6.15963C6.85 49.293 7.40963 48.7334 7.40963 48.043C7.40963 47.3526 6.85 46.793 6.15963 46.793Z" fill="white"/>
<path d="M1.25 11.0921C1.94037 11.0921 2.5 10.5325 2.5 9.84213V5.14301H6.15963C6.85 5.14301 7.40963 4.58338 7.40963 3.89301C7.40963 3.20263 6.85 2.64301 6.15963 2.64301H1.25C0.559625 2.64301 0 3.20263 0 3.89301V9.84213C0 10.5325 0.559625 11.0921 1.25 11.0921Z" fill="white"/>
<path d="M62.75 40.8439C62.0596 40.8439 61.5 41.4035 61.5 42.0939V46.793H57.8403C57.15 46.793 56.5903 47.3526 56.5903 48.043C56.5903 48.7334 57.15 49.293 57.8403 49.293H62.75C63.4403 49.293 64 48.7334 64 48.043V42.0939C64 41.4035 63.4403 40.8439 62.75 40.8439Z" fill="white"/>
<path d="M62.75 2.64301H57.8403C57.15 2.64301 56.5903 3.20263 56.5903 3.89301C56.5903 4.58338 57.15 5.14301 57.8403 5.14301H61.5V9.84213C61.5 10.5325 62.0596 11.0921 62.75 11.0921C63.4403 11.0921 64 10.5325 64 9.84213V3.89301C64 3.20276 63.4403 2.64301 62.75 2.64301V2.64301Z" fill="white"/>
<path d="M6.12129 26.3033C6.38316 26.932 7.12341 27.2405 7.75379 26.9795C8.38154 26.7196 8.69054 25.9743 8.42879 25.347C8.16641 24.7181 7.42854 24.4103 6.79754 24.6708C6.16604 24.9316 5.86291 25.6733 6.12129 26.3033V26.3033Z" fill="white"/>
</svg>
