<svg width="64" height="64" viewBox="0 0 64 64" fill="none" xmlns="http://www.w3.org/2000/svg">
<path d="M26.9069 28.7635C27.9745 28.7635 29.0181 28.4469 29.9058 27.8538C30.7935 27.2607 31.4854 26.4176 31.894 25.4313C32.3025 24.4449 32.4094 23.3595 32.2011 22.3124C31.9929 21.2653 31.4788 20.3035 30.7238 19.5486C29.9689 18.7936 29.0071 18.2795 27.96 18.0713C26.9128 17.863 25.8275 17.9699 24.8411 18.3784C23.8548 18.787 23.0117 19.4789 22.4186 20.3666C21.8254 21.2543 21.5089 22.2979 21.5089 23.3655C21.5105 24.7967 22.0797 26.1687 23.0917 27.1807C24.1037 28.1927 25.4757 28.7619 26.9069 28.7635ZM26.9069 19.9675C27.5789 19.9675 28.2359 20.1668 28.7947 20.5402C29.3535 20.9136 29.789 21.4443 30.0462 22.0652C30.3034 22.6861 30.3707 23.3693 30.2396 24.0284C30.1085 24.6876 29.7848 25.2931 29.3096 25.7683C28.8344 26.2435 28.2289 26.5671 27.5698 26.6982C26.9106 26.8294 26.2274 26.7621 25.6065 26.5049C24.9856 26.2477 24.4549 25.8122 24.0815 25.2534C23.7081 24.6946 23.5089 24.0376 23.5089 23.3655C23.5099 22.4646 23.8682 21.6009 24.5052 20.9639C25.1423 20.3269 26.006 19.9686 26.9069 19.9675V19.9675Z" fill="#339966"/>
<path d="M56.75 42.25H52.375V37.875C52.375 37.6098 52.2696 37.3554 52.0821 37.1679C51.8946 36.9804 51.6402 36.875 51.375 36.875C51.1098 36.875 50.8554 36.9804 50.6679 37.1679C50.4804 37.3554 50.375 37.6098 50.375 37.875V42.25H46.125C45.8598 42.25 45.6054 42.3554 45.4179 42.5429C45.2304 42.7304 45.125 42.9848 45.125 43.25C45.125 43.5152 45.2304 43.7696 45.4179 43.9571C45.6054 44.1446 45.8598 44.25 46.125 44.25H50.375V48.5C50.375 48.7652 50.4804 49.0196 50.6679 49.2071C50.8554 49.3946 51.1098 49.5 51.375 49.5C51.6402 49.5 51.8946 49.3946 52.0821 49.2071C52.2696 49.0196 52.375 48.7652 52.375 48.5V44.25H56.75C57.0152 44.25 57.2696 44.1446 57.4571 43.9571C57.6446 43.7696 57.75 43.5152 57.75 43.25C57.75 42.9848 57.6446 42.7304 57.4571 42.5429C57.2696 42.3554 57.0152 42.25 56.75 42.25Z" fill="#339966"/>
<path d="M59 34.1411V15.2155C59 11.907 56.2761 9.25003 52.9676 9.25003H6.84411C6.05987 9.24764 5.28289 9.40028 4.55784 9.69918C3.83279 9.99809 3.17397 10.4374 2.61926 10.9917C2.06454 11.5461 1.62488 12.2047 1.32553 12.9295C1.02619 13.6544 0.873073 14.4313 0.874987 15.2155V45.3536C0.874987 48.6625 3.53574 51.375 6.84411 51.375H43.2049C44.8414 53.0092 46.9255 54.1216 49.194 54.5719C51.4624 55.0222 53.8134 54.7901 55.95 53.905C58.0866 53.0198 59.913 51.5213 61.1984 49.5987C62.4838 47.6761 63.1706 45.4157 63.172 43.103C63.172 39.5105 61.5 36.2866 59 34.1411ZM6.84411 11.25H52.9676C55.1733 11.25 57 13.0099 57 15.2155V32.7875C55.3038 31.8796 53.409 31.4065 51.4851 31.4105C51.0483 31.4107 50.6118 31.4349 50.1776 31.4832L41.8 25.5514C41.6082 25.4157 41.3749 25.3517 41.1408 25.3705C40.9067 25.3893 40.6866 25.4897 40.5189 25.6542L29.2284 36.75L16.1062 30.355C15.9614 30.2832 15.801 30.2487 15.6394 30.2546C15.4779 30.2605 15.3204 30.3067 15.1812 30.3889L2.87499 37.5355V15.2155C2.87278 14.6938 2.97397 14.1769 3.1727 13.6946C3.37144 13.2122 3.66377 12.774 4.03283 12.4053C4.40188 12.0366 4.84034 11.7446 5.32287 11.5464C5.8054 11.3481 6.32244 11.2473 6.84411 11.25V11.25ZM2.87499 45.3536V39.8476L15.7239 32.3863L27.7217 38.248L16.4039 49.375H6.84411C5.78461 49.3677 4.77136 48.9401 4.02708 48.186C3.28279 47.4319 2.8684 46.4131 2.87499 45.3536V45.3536ZM19.2571 49.375L41.3222 27.6775L47.5583 32.09C45.2845 32.9021 43.3171 34.3967 41.9252 36.3695C40.5333 38.3423 39.7847 40.6969 39.782 43.1113C39.782 45.4113 40.45 47.5003 41.6016 49.3753L19.2571 49.375ZM51.4689 52.7845C49.5528 52.7845 47.6798 52.2163 46.0867 51.1518C44.4936 50.0873 43.2519 48.5743 42.5187 46.8041C41.7855 45.0339 41.5937 43.0861 41.9676 41.2069C42.3414 39.3276 43.2641 37.6015 44.619 36.2467C45.9739 34.8919 47.7001 33.9693 49.5793 33.5956C51.4586 33.2219 53.4064 33.4138 55.1766 34.1471C56.9467 34.8804 58.4596 36.1222 59.524 37.7154C60.5884 39.3086 61.1565 41.1816 61.1564 43.0976C61.1535 45.666 60.1319 48.1283 58.3157 49.9443C56.4996 51.7603 54.0372 52.7818 51.4689 52.7845V52.7845Z" fill="#339966"/>
</svg>
