<svg width="64" height="64" viewBox="0 0 64 64" fill="none" xmlns="http://www.w3.org/2000/svg">
<path d="M3.75 3.75H15V0H0V15H3.75V3.75Z" fill="#339966"/>
<path d="M49 0V3.75H60.25V15H64V0H49Z" fill="#339966"/>
<path d="M60.25 60.25H49V64H64V49H60.25V60.25Z" fill="#339966"/>
<path d="M3.75 49H0V64H15V60.25H3.75V49Z" fill="#339966"/>
<path d="M7.625 7.5V26.25H26.375V15H30.125V11.25H26.375V7.5H7.625ZM22.625 22.5H11.375V11.25H22.625V22.5Z" fill="#339966"/>
<path d="M56.375 56.25V37.5H48.875V33.75H45.125V37.5H33.875V41.25H37.625V45H33.875V48.75H37.625V56.25H56.375ZM41.375 41.25H52.625V52.5H41.375V41.25Z" fill="#339966"/>
<path d="M18.875 33.75H26.375V30H7.625V33.75H15.125V37.5H11.375V41.25H15.125V48.75H11.375V52.5H15.125V56.25H33.875V52.5H30.125V48.75H26.375V52.5H18.875V48.75H22.625V45H18.875V33.75Z" fill="#339966"/>
<path d="M15.125 15H18.875V18.75H15.125V15Z" fill="#339966"/>
<path d="M45.125 15H48.875V18.75H45.125V15Z" fill="#339966"/>
<path d="M48.875 26.25H56.375V7.5H37.625V26.25H45.125V30H48.875V26.25ZM41.375 22.5V11.25H52.625V22.5H41.375Z" fill="#339966"/>
<path d="M56.375 33.75V30C55.4678 30 49.7886 30 48.875 30V33.75H56.375Z" fill="#339966"/>
<path d="M45.125 45H48.875V48.75H45.125V45Z" fill="#339966"/>
<path d="M30.125 41.25H33.875V45H30.125V41.25Z" fill="#339966"/>
<path d="M22.625 45H26.375C26.375 44.0928 26.375 38.4136 26.375 37.5H22.625V45Z" fill="#339966"/>
<path d="M26.375 33.75H30.125V37.5H26.375V33.75Z" fill="#339966"/>
<path d="M11.375 41.25H7.625V48.75H11.375C11.375 47.8428 11.375 42.1636 11.375 41.25Z" fill="#339966"/>
<path d="M7.625 52.5H11.375V56.25H7.625V52.5Z" fill="#339966"/>
<path d="M30.125 7.5H33.875V11.25H30.125V7.5Z" fill="#339966"/>
<path d="M30.125 22.5H33.875C33.875 21.5928 33.875 15.9136 33.875 15H30.125V22.5Z" fill="#339966"/>
<path d="M33.875 30V26.25H30.125V33.75H45.125V30H33.875Z" fill="#339966"/>
</svg>
