<svg width="80" height="80" viewBox="0 0 80 80" fill="none" xmlns="http://www.w3.org/2000/svg">
<path d="M40 72C57.6731 72 72 57.6731 72 40C72 22.3269 57.6731 8 40 8C22.3269 8 8 22.3269 8 40C8 57.6731 22.3269 72 40 72Z" fill="#339966"/>
<path d="M58.6816 33.4112L40.6816 21.0112C40.272 20.7296 39.7312 20.7296 39.32 21.0112L21.32 33.4112C20.9936 33.6352 20.8 34.0048 20.8 34.4V57.6C20.8 58.4832 21.5168 59.2 22.4 59.2H25.6V40C25.6 39.1168 26.3168 38.4 27.2 38.4H52.8C53.6832 38.4 54.4 39.1168 54.4 40V59.2H57.6C58.4832 59.2 59.2 58.4832 59.2 57.6V34.4C59.2 34.0048 59.0064 33.6352 58.6816 33.4112Z" fill="white"/>
<path d="M35.6 51.2001V52.4001C35.6 53.0625 35.0624 53.6001 34.4 53.6001C33.7376 53.6001 33.2 53.0625 33.2 52.4001V51.2001H30.4C29.9584 51.2001 29.6 51.5585 29.6 52.0001V58.4001C29.6 58.8417 29.9584 59.2001 30.4 59.2001H38.4C38.8416 59.2001 39.2 58.8417 39.2 58.4001V52.0001C39.2 51.5585 38.8416 51.2001 38.4 51.2001H35.6Z" fill="white"/>
<path d="M46.8 51.2001V52.4001C46.8 53.0625 46.2624 53.6001 45.6 53.6001C44.9376 53.6001 44.4 53.0625 44.4 52.4001V51.2001H41.6C41.1584 51.2001 40.8 51.5585 40.8 52.0001V58.4001C40.8 58.8417 41.1584 59.2001 41.6 59.2001H49.6C50.0416 59.2001 50.4 58.8417 50.4 58.4001V52.0001C50.4 51.5585 50.0416 51.2001 49.6 51.2001H46.8Z" fill="white"/>
<path d="M41.2 41.6001V42.8001C41.2 43.4625 40.6624 44.0001 40 44.0001C39.3376 44.0001 38.8 43.4625 38.8 42.8001V41.6001H36C35.5584 41.6001 35.2 41.9585 35.2 42.4001V48.8001C35.2 49.2417 35.5584 49.6001 36 49.6001H44C44.4416 49.6001 44.8 49.2417 44.8 48.8001V42.4001C44.8 41.9585 44.4416 41.6001 44 41.6001H41.2Z" fill="white"/>
</svg>
