<svg width="80" height="80" viewBox="0 0 80 80" fill="none" xmlns="http://www.w3.org/2000/svg">
<path d="M40 72C57.6731 72 72 57.6731 72 40C72 22.3269 57.6731 8 40 8C22.3269 8 8 22.3269 8 40C8 57.6731 22.3269 72 40 72Z" fill="#339966"/>
<path d="M40 35.6802C44.2043 35.6802 47.6125 32.272 47.6125 28.0677C47.6125 23.8634 44.2043 20.4552 40 20.4552C35.7957 20.4552 32.3875 23.8634 32.3875 28.0677C32.3875 32.272 35.7957 35.6802 40 35.6802Z" fill="white"/>
<path d="M55.4 35.6801C58.0579 35.6801 60.2125 33.5254 60.2125 30.8676C60.2125 28.2097 58.0579 26.0551 55.4 26.0551C52.7421 26.0551 50.5875 28.2097 50.5875 30.8676C50.5875 33.5254 52.7421 35.6801 55.4 35.6801Z" fill="white"/>
<path d="M24.6 35.6801C27.2579 35.6801 29.4125 33.5254 29.4125 30.8676C29.4125 28.2097 27.2579 26.0551 24.6 26.0551C21.9421 26.0551 19.7875 28.2097 19.7875 30.8676C19.7875 33.5254 21.9421 35.6801 24.6 35.6801Z" fill="white"/>
<path d="M29.3416 40.0019C27.4473 38.4498 25.7316 38.6552 23.5413 38.6552C20.2653 38.6552 17.6 41.3047 17.6 44.5606V54.1165C17.6 55.5305 18.7541 56.6802 20.1734 56.6802C26.3007 56.6802 25.5625 56.7911 25.5625 56.416C25.5625 49.6447 24.7605 44.679 29.3416 40.0019Z" fill="white"/>
<path d="M42.0834 38.6902C38.2575 38.371 34.9321 38.6938 32.0637 41.0614C27.2638 44.9062 28.1875 50.0829 28.1875 56.4159C28.1875 58.0914 29.5508 59.4802 31.2517 59.4802C49.7214 59.4802 50.4565 60.0759 51.5517 57.6505C51.9109 56.8303 51.8125 57.091 51.8125 49.2444C51.8125 43.0121 46.4161 38.6902 42.0834 38.6902Z" fill="white"/>
<path d="M56.4588 38.6551C54.2564 38.6551 52.5502 38.4518 50.6584 40.0018C55.2053 44.6442 54.4375 49.2711 54.4375 56.4159C54.4375 56.7934 53.8247 56.6801 59.7348 56.6801C61.2048 56.6801 62.4 55.4893 62.4 54.0254V44.5605C62.4 41.3046 59.7348 38.6551 56.4588 38.6551Z" fill="white"/>
</svg>
